<svg xmlns="http://www.w3.org/2000/svg" viewBox="0 0 16 16" fill="#000000" id="Code--Streamline-Phosphor" height="16" width="16">
  <desc>
    Code Streamline Icon: https://streamlinehq.com
  </desc>
  <path d="M4.32 5.884375 1.78125 8l2.53875 2.115625a0.5 0.5 0 1 1 -0.64 0.768125l-3 -2.5a0.5 0.5 0 0 1 0 -0.768125l3 -2.5a0.5 0.5 0 0 1 0.64 0.76875Zm11 1.73125 -3 -2.5a0.5 0.5 0 1 0 -0.64 0.76875L14.21875 8l-2.53875 2.115625a0.5 0.5 0 1 0 0.64 0.768125l3 -2.5a0.5 0.5 0 0 0 0 -0.768125Zm-5.149375 -5.585625a0.5 0.5 0 0 0 -0.640625 0.299375l-4 11a0.5 0.5 0 0 0 0.299375 0.64125A0.50875 0.50875 0 0 0 6 14a0.5 0.5 0 0 0 0.47 -0.329375l4 -11a0.5 0.5 0 0 0 -0.299375 -0.640625Z" stroke-width="0.0625"></path>
</svg>